<svg width="28" height="28" viewBox="0 0 28 28" fill="none" xmlns="http://www.w3.org/2000/svg">
    <path d="M14 28.0001C21.732 28.0001 28 21.732 28 14.0001C28 6.26807 21.732 6.10352e-05 14 6.10352e-05C6.26801 6.10352e-05 0 6.26807 0 14.0001C0 21.732 6.26801 28.0001 14 28.0001Z" fill="#440000"/>
    <path fill-rule="evenodd" clip-rule="evenodd" d="M15.4184 11.7429C15.9009 11.5024 16.5147 11.1483 17.1293 10.6631C17.2589 10.9322 17.2731 11.167 17.2063 11.3567C17.159 11.4903 17.0699 11.6065 16.9526 11.699C16.8257 11.7989 16.6671 11.8717 16.4919 11.911C16.1593 11.9859 15.771 11.9422 15.4184 11.7429ZM15.5021 14.2077L16.1407 14.5766C14.8368 15.3074 14.4823 16.6644 14.0612 17.9862C13.6402 16.6644 13.2856 15.3074 11.9818 14.5766L12.6204 14.2077C12.6822 14.1844 12.735 14.1421 12.7712 14.0869C12.8075 14.0317 12.8253 13.9664 12.8223 13.9004C12.7637 12.6626 13.098 12.1152 13.5488 11.7715C13.7105 11.6484 13.887 11.5865 14.0612 11.5865C14.2354 11.5865 14.4119 11.6484 14.5737 11.7715C15.0245 12.1152 15.3587 12.6626 15.3002 13.9004C15.2971 13.9664 15.315 14.0317 15.3512 14.0869C15.3875 14.1421 15.4403 14.1844 15.5021 14.2077ZM14.0612 6.12506C14.7994 6.14488 15.5394 6.28818 16.1816 6.56696C16.6264 6.76026 17.0414 7.01559 17.4171 7.32091C17.5868 7.45875 17.7266 7.5919 17.8805 7.7452C18.2956 7.75955 18.9023 7.29836 19.184 6.86682C18.6992 8.45599 16.4872 10.3327 14.9558 11.0508C14.9552 11.0505 14.9548 11.0501 14.9543 11.0498C14.6795 10.84 14.3704 10.735 14.0612 10.735C13.752 10.735 13.443 10.84 13.1682 11.0498C13.1677 11.0501 13.1673 11.0506 13.1666 11.0508C11.6352 10.3327 9.42322 8.45599 8.93848 6.86682C9.22009 7.29836 9.82679 7.75955 10.2419 7.7452C10.3959 7.59196 10.5356 7.45875 10.7053 7.32091C11.081 7.01559 11.496 6.76026 11.9408 6.56696C12.5831 6.28818 13.3231 6.14488 14.0612 6.12506ZM12.704 11.7429C12.2216 11.5024 11.6077 11.1483 10.9932 10.6631C10.8636 10.9322 10.8494 11.167 10.9161 11.3567C10.9634 11.4903 11.0526 11.6065 11.1698 11.699C11.2968 11.7989 11.4553 11.8717 11.6306 11.911C11.9632 11.9859 12.3514 11.9422 12.704 11.7429Z" fill="#E2F54E"/>
    <path fill-rule="evenodd" clip-rule="evenodd" d="M17.8024 10.0686C18.1408 9.72718 18.4389 9.34926 18.6786 9.01202L18.8004 9.24117C19.1923 10.0254 19.396 10.8064 19.396 11.6853L19.3951 13.0801L19.4025 13.8031C19.4309 15.5782 19.815 17.3741 20.685 19.0177L18.8647 17.5498L17.5767 19.6399L16.2235 18.3661L14.0612 21.8751L11.899 18.3662L10.5459 19.64L9.25787 17.5499L7.4375 19.0177C8.30752 17.3742 8.6916 15.5783 8.72004 13.8032L8.7274 13.0802L8.72655 11.6854C8.72655 10.8064 8.93016 10.0254 9.32222 9.24123L9.44392 9.01208C9.68363 9.34931 9.9817 9.72718 10.3201 10.0687L10.2144 10.2881C10.0091 10.7144 9.94117 11.1911 10.1011 11.6444C10.2042 11.9364 10.3923 12.1867 10.6349 12.3779C10.8704 12.5635 11.1491 12.6886 11.4409 12.7543C11.631 12.7971 11.8247 12.8147 12.0171 12.8087C11.9722 13.0632 11.9526 13.3272 11.9513 13.5961L10.2342 14.5879L11.5593 15.3307C11.6652 15.39 11.766 15.4581 11.8607 15.534C12.9531 16.5149 13.6099 19.4166 14.0613 20.8339C14.5127 19.4166 15.1695 16.5149 16.262 15.534C16.3567 15.458 16.4575 15.39 16.5634 15.3307L17.8885 14.5879L16.1713 13.5961C16.17 13.3272 16.1504 13.0632 16.1055 12.8087C16.2979 12.8147 16.4916 12.7971 16.6817 12.7543C16.9735 12.6886 17.2523 12.5635 17.4877 12.3779C17.7302 12.1867 17.9184 11.9364 18.0215 11.6444C18.1814 11.1911 18.1134 10.7145 17.9082 10.2881L17.8025 10.0687L17.8024 10.0686Z" fill="#E2F54E"/>
</svg>
