<svg width="28" height="28" viewBox="0 0 28 28" fill="none" xmlns="http://www.w3.org/2000/svg">
    <g clip-path="url(#clip0_125_32)">
        <path d="M14 28.0001C21.732 28.0001 28 21.732 28 14.0001C28 6.26807 21.732 6.10352e-05 14 6.10352e-05C6.26801 6.10352e-05 0 6.26807 0 14.0001C0 21.732 6.26801 28.0001 14 28.0001Z" fill="#440000"/>
        <path d="M18.1776 18.7162C16.2034 15.6394 13.2599 13.8954 9.62479 13.1695C8.3392 12.9143 7.04771 12.9171 5.80054 13.3878C4.94644 13.7111 4.81641 14.0514 5.21834 14.9106C7.9491 14.2896 10.4907 14.8681 12.8698 16.1867C15.2666 17.5167 17.0546 19.3684 17.8673 22C19.0081 21.6654 19.1558 21.4811 18.881 20.463C18.7184 19.8647 18.5145 19.2408 18.1776 18.7162Z" fill="#E2F54E"/>
        <path d="M19.9871 16.6483C17.4628 12.8969 13.8881 10.7991 9.51908 10.0968C8.36283 9.91076 7.18305 9.96178 6.10035 10.526C5.58254 10.7961 5.12357 11.1412 5 11.8735C8.40697 10.9161 11.4638 11.7625 14.3412 13.4641C17.2333 15.1748 19.4928 17.4707 20.3725 21C20.9845 20.4478 21.0934 19.7695 20.9345 19.1393C20.7168 18.275 20.4696 17.3656 19.9871 16.6483Z" fill="#E2F54E"/>
        <path d="M5 16.3559C5.21691 16.848 5.35954 17.404 5.68341 17.802C5.84684 18.0055 6.34306 17.9265 6.68774 17.9751C6.74122 17.9812 6.79471 17.9903 6.84819 17.9964C9.90573 18.4612 12.3185 19.9741 14.0419 22.6142C14.1429 22.7691 14.3063 23 14.44 23C14.9571 22.997 15.477 22.9149 16 22.8633C15.2215 18.4491 8.79741 14.8278 5 16.3559Z" fill="#E2F54E"/>
        <path d="M21.7224 13.2258C20.1011 10.8238 17.865 9.22448 15.3258 8.08557C13.5673 7.29499 11.7458 6.81943 9.81287 7.06479C9.14377 7.1496 8.51755 7.35254 8 7.81296C14.6024 7.98864 19.5692 11.0177 22.9834 17C22.9891 16.6032 23.0463 16.161 22.909 15.8035C22.5659 14.916 22.2399 13.9922 21.7224 13.2258Z" fill="#E2F54E"/>
        <path d="M23 12C21.6366 6.61548 16.096 4.02405 12 5.33632C16.4122 6.23926 20.0324 8.42136 23 12Z" fill="#E2F54E"/>
        <path d="M7 19.0281C8.53803 21.2696 10.493 22.5763 13 23C12.0423 20.9461 8.66761 18.724 7 19.0281Z" fill="#E2F54E"/>
    </g>
    <defs>
        <clipPath id="clip0_125_32">
            <rect width="28" height="28" fill="white"/>
        </clipPath>
    </defs>
</svg>
