<svg width="28" height="28" viewBox="0 0 28 28" fill="none" xmlns="http://www.w3.org/2000/svg">
    <g clip-path="url(#clip0_94_120)">
        <path d="M14 28.0001C21.732 28.0001 28 21.732 28 14.0001C28 6.26807 21.732 6.10352e-05 14 6.10352e-05C6.26801 6.10352e-05 0 6.26807 0 14.0001C0 21.732 6.26801 28.0001 14 28.0001Z" fill="#440000"/>
        <path d="M5.82653 13.8787C5.82653 13.8787 12.8265 11.0058 15.2543 9.99428C16.1849 9.58965 19.341 8.29486 19.341 8.29486C19.341 8.29486 20.7976 7.72838 20.6762 9.1041C20.6358 9.67058 20.3121 11.6532 19.9884 13.7977C19.5028 16.8324 18.9768 20.1503 18.9768 20.1503C18.9768 20.1503 18.8959 21.081 18.208 21.2428C17.5202 21.4047 16.3872 20.6764 16.1849 20.5145C16.0231 20.3931 13.1502 18.5723 12.0982 17.6821C11.815 17.4394 11.4913 16.9538 12.1387 16.3873C13.5953 15.0521 15.3352 13.3931 16.3872 12.3411C16.8728 11.8555 17.3583 10.7226 15.3352 12.0983C12.4624 14.081 9.63 15.9423 9.63 15.9423C9.63 15.9423 8.9826 16.3469 7.76873 15.9827C6.55485 15.6186 5.13867 15.133 5.13867 15.133C5.13867 15.133 4.16757 14.5261 5.82653 13.8787Z" fill="#E2F54E"/>
    </g>
    <defs>
        <clipPath id="clip0_94_120">
            <rect width="28" height="28" fill="white"/>
        </clipPath>
    </defs>
</svg>
